<?xml version="1.0" standalone="no"?>
<!DOCTYPE svg PUBLIC "-//W3C//DTD SVG 20010904//EN"
 "http://www.w3.org/TR/2001/REC-SVG-20010904/DTD/svg10.dtd">
<svg version="1.0" xmlns="http://www.w3.org/2000/svg"
 width="500.000000pt" height="500.000000pt" viewBox="0 0 500.000000 500.000000"
 preserveAspectRatio="xMidYMid meet">

<g transform="translate(0.000000,500.000000) scale(0.100000,-0.100000)"
fill="#000000" stroke="none">
<path d="M1696 4613 c-73 -33 -166 -95 -209 -140 -100 -104 -148 -203 -181
-378 -9 -49 -21 -110 -26 -135 -5 -25 -19 -130 -30 -235 -11 -104 -25 -224
-30 -265 -5 -41 -19 -147 -30 -235 -36 -281 -41 -319 -51 -360 -21 -89 -72
-262 -85 -290 -8 -16 -25 -68 -39 -115 -14 -47 -43 -130 -64 -185 -22 -55 -42
-120 -46 -145 -11 -68 -65 -221 -90 -255 -12 -17 -26 -45 -29 -62 -4 -18 -28
-58 -53 -90 -24 -32 -54 -78 -65 -103 -11 -25 -24 -54 -30 -65 -15 -27 -11
-174 6 -226 26 -82 27 -98 5 -182 -25 -97 -32 -147 -22 -147 5 0 8 -79 8 -175
l0 -176 27 -32 c16 -18 28 -35 28 -39 0 -12 50 -61 56 -55 8 7 34 -17 34 -32
0 -5 8 -12 18 -15 11 -4 25 -29 37 -64 28 -84 62 -148 90 -170 13 -11 21 -22
18 -26 -4 -4 3 -13 16 -22 15 -11 20 -22 15 -36 -5 -16 2 -29 28 -52 29 -27
36 -42 40 -93 1 -10 236 -13 1137 -13 995 0 1139 2 1158 15 23 16 136 35 165
27 10 -2 18 1 18 7 0 8 5 8 18 0 12 -7 28 -8 52 -1 30 9 31 10 10 11 -17 1
-21 4 -12 9 22 15 -49 45 -92 40 -33 -4 -36 -2 -21 8 10 7 37 16 61 20 24 3
42 10 39 14 -6 10 19 20 58 22 26 1 24 2 -13 8 l-45 6 30 13 c17 7 55 17 85
21 30 4 47 8 38 9 -10 0 -18 6 -18 12 0 11 119 10 160 -2 14 -4 19 -7 12 -8
-7 -1 -10 -5 -7 -11 3 -6 37 -8 77 -6 39 2 87 -1 107 -6 52 -13 223 -16 246
-5 13 7 20 6 23 -2 2 -6 10 -11 18 -11 8 0 11 6 8 15 -5 12 4 15 46 15 49 0
51 1 44 23 -3 12 -11 29 -18 37 -6 8 -1 7 11 -4 13 -10 47 -22 80 -26 l58 -7
-60 -3 c-50 -3 -53 -4 -20 -7 44 -5 118 7 95 15 -8 2 -22 11 -30 18 -8 7 -37
14 -63 15 -48 3 -59 11 -33 26 8 4 15 11 15 16 1 4 3 6 6 5 2 -2 11 6 18 16
13 17 16 18 29 5 8 -8 13 -20 10 -27 -3 -9 14 -12 60 -12 44 0 59 3 48 10 -8
5 -23 10 -32 10 -23 0 -34 20 -17 31 9 5 0 6 -22 3 -35 -6 -60 8 -39 21 5 3
10 15 10 25 0 10 9 21 19 25 11 3 22 13 25 22 5 13 4 14 -9 3 -19 -16 -19 -1
0 24 11 14 15 16 15 5 1 -10 3 -9 11 4 5 9 7 22 3 29 -5 7 -3 8 6 3 9 -5 10
-2 6 13 -4 13 -2 24 7 29 8 4 20 19 27 32 11 21 10 26 -4 36 -23 17 -20 23 8
18 15 -3 25 1 29 11 4 10 1 13 -7 10 -8 -3 -17 -1 -21 5 -3 6 -1 11 5 11 19 0
50 44 44 63 -3 9 1 24 9 32 11 10 15 37 16 85 0 68 -1 71 -20 65 -18 -6 -20
-4 -15 13 4 12 0 46 -8 76 -8 31 -10 53 -5 50 16 -9 10 8 -7 20 -8 6 -16 18
-17 27 -3 18 -65 84 -73 77 -3 -3 1 -22 10 -41 8 -20 13 -43 12 -51 -8 -53
-46 -9 -40 46 4 29 0 40 -16 51 -14 9 -17 16 -9 19 22 7 -13 48 -41 48 -25 0
-50 16 -50 32 0 14 18 8 22 -7 2 -9 8 -11 16 -6 18 11 4 43 -18 36 -9 -3 -24
3 -35 15 -10 11 -15 20 -11 20 4 0 1 6 -6 14 -9 10 -15 11 -20 2 -11 -16 -10
-26 3 -23 11 2 15 -7 26 -63 3 -17 12 -30 20 -30 25 0 39 -22 35 -57 -5 -37 3
-41 30 -16 20 18 24 6 5 -17 -7 -8 -21 -15 -32 -16 -18 0 -20 5 -16 43 2 33 0
43 -12 43 -9 0 -17 -10 -20 -22 -4 -26 -10 -15 -22 37 l-7 30 -11 -25 c-19
-41 -36 -35 -26 8 14 59 11 79 -11 85 -11 3 -20 13 -20 22 0 27 21 57 36 51
17 -6 19 10 3 20 -6 3 -15 0 -20 -7 -5 -8 -9 -10 -9 -6 0 4 -9 3 -20 -3 -22
-12 -27 -1 -7 19 10 10 8 16 -10 31 -13 10 -23 25 -23 34 0 9 -5 16 -11 16 -6
0 -19 10 -30 23 -16 19 -20 20 -28 7 -9 -13 -12 -12 -25 5 -14 18 -15 18 -16
3 0 -10 -4 -18 -9 -18 -5 0 -12 -7 -15 -16 -5 -14 -4 -15 9 -4 14 12 20 7 16
-14 -1 -5 3 -12 10 -16 8 -6 8 -9 0 -14 -6 -4 -11 -2 -11 3 0 16 -14 13 -36
-7 -22 -20 -74 -23 -74 -4 0 7 8 12 18 11 29 -3 38 1 24 10 -11 6 -10 12 4 25
13 14 14 20 5 26 -7 4 -13 11 -13 16 0 13 -27 60 -29 52 -1 -5 -2 -11 -3 -15
-2 -11 -27 -95 -34 -113 -3 -8 -6 -24 -6 -34 -1 -26 -36 -31 -36 -5 0 11 5 17
10 14 6 -3 10 3 10 14 0 12 5 21 10 21 15 0 12 47 -2 53 -8 4 -7 6 3 6 25 1
33 47 13 74 l-16 22 5 -29 c5 -27 4 -28 -30 -23 -33 6 -35 5 -30 -19 3 -16 0
-23 -7 -21 -6 2 -11 10 -11 18 0 8 -7 21 -16 29 -9 8 -14 21 -12 28 6 15 33
16 33 0 0 -6 2 -9 5 -6 10 9 -7 38 -22 38 -9 0 -13 6 -10 14 4 10 1 13 -9 9
-10 -4 -14 3 -14 26 0 23 -4 29 -16 24 -8 -3 -13 -11 -11 -18 3 -6 -1 -12 -9
-12 -15 0 -15 34 1 70 9 22 -3 37 -15 17 -24 -43 -39 -52 -20 -13 21 44 18 56
-7 26 -11 -14 -13 -14 -10 -3 2 8 13 19 25 25 14 6 22 19 22 35 l-1 25 -18
-22 c-24 -29 -25 -29 -56 2 -31 32 -35 85 -6 85 10 0 21 -7 25 -15 3 -8 15
-15 26 -15 13 0 18 -4 15 -11 -5 -7 6 -9 31 -7 31 2 38 7 36 21 -2 9 1 17 7
17 5 0 16 3 24 6 11 4 13 -1 9 -21 -3 -17 1 -31 9 -37 11 -8 10 -9 -4 -4 -9 3
-28 1 -42 -4 -21 -8 -24 -15 -21 -42 2 -18 4 -41 5 -50 0 -10 7 -18 15 -18 8
0 17 -7 20 -16 6 -16 8 -16 24 0 21 18 42 21 42 6 0 -5 5 -10 11 -10 6 0 9 7
6 14 -4 10 -1 13 9 9 9 -3 14 2 14 15 0 27 -10 52 -21 52 -4 0 -6 -7 -3 -15 4
-10 0 -15 -11 -15 -12 0 -15 5 -10 21 4 12 3 24 -2 28 -6 3 -13 21 -16 39 -5
24 -3 32 7 32 18 0 9 40 -10 47 -8 3 -14 15 -14 26 0 20 0 20 -14 2 -8 -11
-12 -24 -9 -29 4 -5 1 -6 -6 -2 -6 4 -9 19 -7 32 4 22 3 24 -10 13 -12 -10
-13 -9 -9 3 4 9 -3 19 -17 26 -15 7 -18 11 -7 11 8 1 20 -4 27 -11 9 -9 12 -9
12 1 0 7 6 11 15 8 8 -4 17 -2 20 3 4 6 3 10 -2 10 -4 0 -14 14 -21 30 -8 17
-18 28 -23 24 -5 -3 -9 0 -9 5 0 6 6 11 14 11 14 0 56 -62 56 -83 0 -7 11 -29
25 -49 14 -20 25 -46 25 -57 0 -12 5 -21 11 -21 6 0 9 -7 5 -15 -3 -9 3 -19
15 -25 11 -6 17 -15 14 -20 -3 -5 0 -12 6 -16 14 -9 4 85 -23 211 -11 49 -25
119 -33 155 -15 75 -68 174 -128 240 -71 79 -176 165 -240 200 -34 18 -67 39
-74 46 -7 7 -48 34 -91 60 -42 27 -80 52 -83 57 -4 5 -17 14 -29 20 -39 20
-138 190 -155 266 -3 17 -10 33 -15 36 -4 2 -31 53 -60 112 -29 58 -77 150
-107 204 -29 54 -79 157 -109 231 -30 73 -63 144 -72 158 -9 14 -27 44 -39 66
-29 54 -119 186 -203 299 -69 91 -127 151 -190 195 -19 13 -48 37 -65 52 -35
33 -169 101 -240 123 -27 8 -77 15 -110 15 -35 0 -85 9 -118 20 -80 28 -120
25 -211 -17z m573 -344 c17 -6 31 -14 31 -18 0 -4 25 -24 55 -46 30 -22 55
-43 55 -47 0 -5 5 -8 11 -8 23 0 180 -165 219 -230 43 -73 56 -106 121 -312
l44 -136 50 -34 c27 -18 73 -54 100 -80 28 -26 77 -62 110 -80 44 -24 65 -44
79 -72 19 -38 19 -39 -7 -135 -14 -53 -31 -141 -37 -196 -7 -55 -15 -121 -20
-147 -7 -43 -6 -46 11 -38 10 6 21 15 24 20 3 6 17 10 31 10 21 0 29 -9 25
-32 0 -5 6 -8 14 -8 8 0 12 -6 9 -14 -3 -9 3 -17 15 -21 11 -3 18 -12 15 -19
-3 -8 11 -30 30 -50 20 -19 36 -38 36 -41 0 -3 11 -17 25 -31 14 -14 25 -31
25 -39 0 -8 11 -17 25 -21 13 -3 27 -15 31 -26 7 -24 115 -134 127 -130 4 1
13 -9 19 -23 6 -14 17 -25 24 -25 7 0 10 -8 7 -19 -3 -11 3 -27 15 -39 11 -11
18 -23 15 -26 -7 -6 37 -50 60 -59 9 -3 17 -11 17 -16 0 -6 23 -33 51 -61 39
-39 49 -54 40 -63 -9 -9 -14 -9 -20 2 -6 9 -11 10 -15 2 -4 -6 -12 -11 -17
-11 -6 0 -7 4 -4 10 3 5 1 10 -4 10 -6 0 -11 5 -11 10 0 6 7 10 16 10 8 0 13
4 10 9 -8 12 -46 2 -46 -12 0 -6 -7 -18 -15 -27 -14 -15 -14 -19 1 -31 13 -11
18 -11 21 -1 3 6 9 12 15 12 6 0 3 -9 -7 -20 -17 -19 -19 -19 -37 -4 -21 20
-24 50 -4 57 7 3 16 16 19 29 5 19 4 20 -6 6 -10 -15 -12 -15 -24 0 -11 15
-12 14 -13 -10 0 -19 -4 -26 -14 -22 -14 5 -23 -2 -51 -41 -11 -16 -14 -17
-15 -4 0 8 14 31 30 49 35 39 61 86 52 94 -11 12 -22 5 -22 -13 0 -10 -7 -22
-16 -25 -16 -6 -80 21 -71 30 3 3 15 -1 27 -8 18 -10 24 -10 27 0 3 6 9 10 14
6 5 -3 9 1 9 10 0 9 -8 13 -24 12 -23 -3 -28 7 -13 31 4 6 3 14 -2 17 -5 4
-12 2 -16 -4 -9 -15 -25 -12 -25 5 0 20 -10 19 -35 -5 -23 -21 -55 -18 -55 5
0 7 -12 15 -27 18 -29 5 -48 -2 -25 -10 6 -3 12 -9 12 -14 0 -15 -27 -10 -45
7 -13 14 -14 19 -3 25 9 6 7 8 -7 7 -23 -2 -75 29 -75 45 0 7 4 7 12 -1 7 -7
21 -12 33 -12 17 1 15 4 -10 17 -16 10 -35 16 -42 15 -7 -2 -38 22 -69 53 -31
30 -54 55 -50 55 4 0 0 10 -8 22 -9 12 -16 32 -16 45 0 24 -16 40 -22 21 -2
-6 -10 -8 -16 -4 -16 10 -15 29 1 20 9 -5 9 -4 1 5 -7 7 -20 11 -30 9 -14 -2
-25 8 -40 37 -26 48 -64 62 -56 20 2 -15 11 -29 18 -32 8 -3 14 -11 14 -18 0
-7 7 -18 15 -25 8 -7 15 -19 15 -27 0 -13 -2 -13 -17 -2 -11 10 -14 10 -9 2 4
-8 2 -13 -4 -13 -6 0 -8 -5 -4 -11 3 -6 9 -7 13 -2 9 13 28 10 51 -9 23 -21
27 -40 5 -32 -8 3 -13 11 -12 16 1 6 -4 13 -11 15 -16 6 -4 -27 17 -45 14 -11
14 -13 1 -9 -8 2 -21 17 -29 32 -13 26 -15 27 -21 10 -6 -17 -7 -17 -14 6 -5
13 -9 27 -10 31 0 3 -5 10 -10 15 -5 4 -6 3 -2 -4 3 -6 2 -14 -3 -18 -12 -7
-34 32 -26 45 3 6 0 10 -8 10 -22 0 -60 47 -53 66 3 9 1 23 -5 31 -9 11 -8 17
7 28 18 14 18 15 -3 21 -13 3 -23 13 -23 21 0 11 -7 13 -25 9 -50 -13 -104 37
-105 97 0 21 6 70 14 110 8 40 20 104 25 144 6 39 15 83 21 98 13 35 13 38 -5
31 -19 -7 -19 -1 1 29 16 24 5 30 -23 12 -16 -10 -16 -2 -3 23 10 18 7 19 -44
16 -44 -3 -58 0 -72 15 -9 10 -20 16 -25 13 -4 -2 -13 5 -20 18 -10 18 -8 24
11 40 12 10 28 18 36 18 7 0 11 6 8 13 -2 7 4 30 15 52 23 48 19 56 -13 26
-29 -28 -60 -24 -64 7 -2 13 -10 26 -18 29 -27 10 -14 21 20 17 26 -3 35 0 38
14 6 23 -24 52 -82 78 -8 4 -24 15 -35 25 -23 20 -97 49 -127 49 -28 0 -33
-26 -9 -51 12 -13 21 -26 21 -30 0 -4 20 -20 44 -36 45 -30 96 -83 96 -100 0
-18 -54 -35 -124 -41 l-69 -5 6 29 c10 54 13 62 26 78 16 19 17 18 -38 20 -25
1 -40 1 -33 -2 8 -2 8 -8 -1 -23 -14 -22 -32 -26 -23 -4 3 8 1 15 -4 15 -6 0
-10 -4 -10 -10 0 -14 -13 -13 -76 6 l-54 15 6 65 c5 44 3 64 -5 64 -6 0 -11
11 -11 25 0 14 -6 40 -13 58 -20 50 -11 83 32 112 16 10 27 23 24 28 -3 5 4 4
14 -2 15 -7 19 -17 16 -36 -6 -29 20 -75 42 -75 8 0 15 -4 15 -10 0 -6 37 -10
92 -10 85 0 95 2 139 31 44 28 79 59 66 59 -3 0 -17 -4 -31 -10 -17 -6 -27 -6
-32 1 -8 14 32 56 62 63 30 8 31 24 2 30 -26 6 -103 15 -131 15 -25 1 -11 21
14 21 11 0 17 5 14 10 -11 17 34 11 76 -11 23 -11 43 -18 46 -16 10 10 -51 67
-71 67 -12 0 -28 5 -36 11 -11 8 -8 9 13 4 19 -4 26 -2 22 5 -3 5 -14 10 -23
11 -10 0 -12 3 -5 6 7 2 15 4 19 3 4 -1 10 3 13 8 4 7 20 5 44 -3 52 -18 44 2
-13 32 -43 23 -46 23 -183 12 -110 -9 -143 -15 -157 -29 -10 -10 -15 -22 -12
-26 4 -4 1 -4 -5 0 -7 4 -26 -3 -43 -16 -26 -19 -34 -20 -50 -10 -16 10 -20
10 -20 -1 0 -7 5 -18 10 -23 7 -7 4 -16 -8 -27 -20 -18 -52 -14 -52 7 0 6 -5
4 -10 -4 -8 -12 -10 -11 -10 7 0 12 6 24 13 27 8 3 7 8 -5 16 -10 6 -18 19
-17 28 0 15 1 15 8 -1 14 -37 45 -10 34 30 -3 13 -1 23 6 23 6 0 8 7 5 15 -4
9 0 15 10 15 9 0 16 5 16 10 0 6 7 10 15 10 8 0 15 4 15 10 0 5 -6 7 -14 4 -9
-3 -15 4 -18 20 -5 22 -3 24 14 15 28 -15 32 -5 13 25 -17 25 -17 26 4 26 12
0 21 6 21 15 0 9 6 12 15 9 8 -4 15 -1 15 5 0 6 -4 11 -10 11 -5 0 -10 4 -10
8 0 5 16 7 36 6 l37 -3 -19 21 c-11 12 -13 18 -6 14 6 -4 12 -2 12 3 0 14 58
14 99 0z m26 -299 c-10 -11 -20 -18 -23 -15 -7 6 18 35 31 35 5 0 2 -9 -8 -20z
m-199 -89 c-4 -5 0 -12 6 -14 8 -3 6 -6 -4 -6 -18 -1 -24 10 -11 22 9 10 15 8
9 -2z m384 -66 c-7 -8 -16 -15 -20 -15 -4 0 -10 7 -14 15 -4 11 2 15 21 15 21
0 24 -2 13 -15z m-570 -215 c0 -5 -2 -10 -4 -10 -3 0 -8 5 -11 10 -3 6 -1 10
4 10 6 0 11 -4 11 -10z m60 -157 c-1 -14 -30 -47 -36 -41 -6 7 17 48 28 48 5
0 8 -3 8 -7z m97 -22 c-2 -10 0 -27 5 -37 9 -18 8 -18 -6 0 -18 23 -21 56 -5
56 6 0 9 -8 6 -19z m393 -140 c0 -11 -29 -47 -30 -37 0 5 -7 3 -15 -4 -8 -7
-22 -9 -31 -6 -12 5 -15 2 -11 -13 5 -20 -27 -41 -61 -41 -10 0 -22 -4 -27 -9
-10 -9 -38 -14 -62 -12 -25 2 -12 29 20 41 17 6 41 17 52 23 125 69 165 83
165 58z m83 -39 c-4 -17 -51 -57 -58 -50 -3 2 7 21 21 41 25 37 46 43 37 9z
m-343 -77 c0 -8 -4 -15 -9 -15 -13 0 -22 16 -14 24 11 11 23 6 23 -9z m296
-81 c-3 -8 -1 -14 4 -14 6 0 10 -13 10 -28 0 -15 5 -33 11 -39 15 -15 -14 -63
-36 -63 -8 0 -15 -4 -15 -10 0 -5 -12 -13 -27 -16 -16 -4 -35 -12 -43 -19 -21
-17 -59 -25 -66 -14 -3 5 -10 7 -15 4 -5 -4 -9 -1 -9 4 0 6 -9 20 -20 31 -42
42 -25 64 104 141 63 37 112 48 102 23z m134 -18 c0 -9 -30 -14 -35 -6 -4 6 3
10 14 10 12 0 21 -2 21 -4z m217 -628 c-3 -8 -6 -5 -6 6 -1 11 2 17 5 13 3 -3
4 -12 1 -19z m-2 -28 c3 -5 1 -10 -4 -10 -6 0 -11 5 -11 10 0 6 2 10 4 10 3 0
8 -4 11 -10z m38 -72 c9 -6 9 -8 0 -8 -14 0 -33 32 -32 52 0 7 5 2 10 -12 6
-13 15 -28 22 -32z m114 -14 c-3 -3 -12 -4 -19 -1 -8 3 -5 6 6 6 11 1 17 -2
13 -5z m91 -1 c0 -5 2 -16 7 -26 6 -14 10 -15 22 -6 8 7 13 8 12 3 -4 -25 3
-43 19 -48 16 -5 52 -54 52 -70 0 -11 -29 -6 -36 6 -5 7 -3 8 6 3 8 -5 11 -3
8 6 -3 8 -13 13 -22 12 -10 0 -15 4 -12 12 2 7 -13 31 -35 53 -38 41 -49 62
-29 62 6 0 9 -3 8 -7z m-178 -23 c0 -5 -5 -10 -11 -10 -5 0 -7 5 -4 10 3 6 8
10 11 10 2 0 4 -4 4 -10z m957 -92 c-3 -8 -6 -5 -6 6 -1 11 2 17 5 13 3 -3 4
-12 1 -19z m63 1 c0 -5 -4 -9 -8 -9 -5 0 -9 7 -9 15 0 8 4 12 9 9 4 -3 8 -9 8
-15z m-10 -30 c0 -14 -17 -10 -23 5 -4 10 -1 13 9 9 7 -3 14 -9 14 -14z m-675
-30 c11 -19 22 -29 31 -25 8 3 14 0 14 -5 0 -7 -9 -9 -22 -6 -12 4 -28 1 -35
-5 -9 -7 -13 -7 -13 0 0 6 5 12 11 14 5 2 7 11 4 21 -4 9 -11 14 -16 11 -5 -3
-9 2 -9 10 0 26 18 18 35 -15z m625 21 c0 -5 -5 -10 -11 -10 -5 0 -7 5 -4 10
3 6 8 10 11 10 2 0 4 -4 4 -10z m-833 -56 c-3 -3 -12 -4 -19 -1 -8 3 -5 6 6 6
11 1 17 -2 13 -5z m273 -28 c6 -8 17 -13 25 -10 7 3 16 1 20 -5 11 -19 -26
-12 -52 9 -14 11 -21 20 -16 20 6 0 16 -6 23 -14z m125 5 c3 -5 1 -12 -5 -16
-5 -3 -10 1 -10 9 0 18 6 21 15 7z m-367 -21 c-7 -10 -14 -17 -17 -15 -4 4 18
35 25 35 2 0 -1 -9 -8 -20z m786 -15 c-25 -19 -38 -19 -22 0 7 8 19 14 27 15
11 0 9 -4 -5 -15z m-402 -15 c-23 -22 -32 -25 -32 -12 0 5 10 14 23 20 32 15
33 14 9 -8z m348 16 c0 -3 -4 -8 -10 -11 -5 -3 -10 -1 -10 4 0 6 5 11 10 11 6
0 10 -2 10 -4z m-236 -63 c-10 -7 -27 -20 -37 -28 -33 -28 -31 -15 3 19 19 19
39 32 44 29 5 -4 0 -12 -10 -20z m-104 13 c0 -3 -4 -8 -10 -11 -5 -3 -10 -1
-10 4 0 6 5 11 10 11 6 0 10 -2 10 -4z m457 -12 c-3 -3 -12 -4 -19 -1 -8 3 -5
6 6 6 11 1 17 -2 13 -5z m-297 -63 c0 -19 -26 -48 -36 -39 -7 7 17 58 28 58 4
0 8 -8 8 -19z m130 -16 c-7 -8 -17 -15 -23 -15 -6 0 -2 8 9 19 22 21 33 19 14
-4z m-214 -20 c-11 -8 -25 -15 -30 -15 -6 1 0 7 14 15 32 19 40 18 16 0z m75
-41 c-11 -15 -21 -21 -21 -14 0 14 32 50 39 44 2 -2 -6 -15 -18 -30z m-54 10
c-3 -3 -12 -4 -19 -1 -8 3 -5 6 6 6 11 1 17 -2 13 -5z m203 -38 c0 -8 -4 -18
-10 -21 -5 -3 -10 3 -10 14 0 12 5 21 10 21 6 0 10 -6 10 -14z m65 4 c-3 -5
-13 -10 -21 -10 -8 0 -14 5 -14 10 0 6 9 10 21 10 11 0 17 -4 14 -10z m175 0
c0 -5 -4 -10 -10 -10 -5 0 -10 5 -10 10 0 6 5 10 10 10 6 0 10 -4 10 -10z
m-25 -28 c-6 -7 -34 11 -29 19 3 5 11 3 19 -4 7 -6 12 -13 10 -15z m-508 -4
c-3 -8 -6 -5 -6 6 -1 11 2 17 5 13 3 -3 4 -12 1 -19z m287 -73 c-28 -22 -40
-18 -13 4 13 11 26 17 28 15 3 -2 -4 -11 -15 -19z m66 -25 c3 -1 8 -2 13 -1 4
0 7 -3 7 -9 0 -14 -23 -12 -46 4 -19 15 -19 15 1 11 11 -2 22 -4 25 -5z m90
-51 c0 -5 -4 -9 -10 -9 -5 0 -10 7 -10 16 0 8 5 12 10 9 6 -3 10 -10 10 -16z
m-162 -23 c-7 -7 -19 -11 -26 -8 -11 4 -11 6 0 13 7 5 19 9 26 9 10 0 10 -3 0
-14z m55 -16 c-10 -11 -19 -20 -21 -20 -1 0 2 9 8 20 6 11 15 20 20 20 6 0 2
-9 -7 -20z m107 10 c0 -5 -5 -10 -11 -10 -5 0 -7 5 -4 10 3 6 8 10 11 10 2 0
4 -4 4 -10z m110 -40 c0 -5 -4 -10 -9 -10 -6 0 -13 5 -16 10 -3 6 1 10 9 10 9
0 16 -4 16 -10z m-310 -4 c0 -2 -7 -7 -16 -10 -8 -3 -12 -2 -9 4 6 10 25 14
25 6z m248 -37 c-19 -13 -28 -11 -28 5 0 9 7 12 21 9 16 -4 17 -8 7 -14z m42
-14 c0 -8 -7 -15 -16 -15 -14 0 -14 3 -4 15 7 8 14 15 16 15 2 0 4 -7 4 -15z
m-227 -18 c3 -8 -3 -13 -14 -13 -19 0 -24 8 -12 19 10 11 20 8 26 -6z m139
-29 c-7 -7 -12 -8 -12 -2 0 14 12 26 19 19 2 -3 -1 -11 -7 -17z m368 12 c13
-9 13 -11 0 -20 -22 -15 -29 -12 -27 10 1 22 6 24 27 10z m-440 -35 c0 -8 -7
-15 -15 -15 -16 0 -20 12 -8 23 11 12 23 8 23 -8z m265 -5 c-3 -5 -15 -15 -25
-20 -16 -8 -18 -8 -14 4 3 8 13 17 22 19 10 3 18 5 20 6 2 0 0 -3 -3 -9z m123
-17 c-10 -2 -18 -8 -18 -12 0 -3 -11 -8 -25 -9 -28 -2 -34 15 -7 20 26 6 70 6
50 1z m-361 -25 c-3 -8 -6 -5 -6 6 -1 11 2 17 5 13 3 -3 4 -12 1 -19z m253 -8
c-20 -12 -33 -1 -19 16 9 11 15 12 23 4 8 -8 7 -13 -4 -20z m-280 -21 c-7 -11
-14 -18 -17 -15 -3 3 0 12 7 21 18 21 23 19 10 -6z m250 -12 c0 -5 -4 -5 -10
-2 -5 3 -10 14 -10 23 0 15 2 15 10 2 5 -8 10 -19 10 -23z m167 1 c-3 -8 -6
-5 -6 6 -1 11 2 17 5 13 3 -3 4 -12 1 -19z m-115 -30 c-7 -7 -12 -8 -12 -2 0
14 12 26 19 19 2 -3 -1 -11 -7 -17z m-92 2 c0 -5 -4 -10 -9 -10 -6 0 -13 5
-16 10 -3 6 1 10 9 10 9 0 16 -4 16 -10z m310 -31 c0 -5 -4 -9 -10 -9 -5 0
-10 7 -10 16 0 8 5 12 10 9 6 -3 10 -10 10 -16z m-170 -9 c0 -5 -5 -10 -11
-10 -5 0 -7 5 -4 10 3 6 8 10 11 10 2 0 4 -4 4 -10z m27 -22 c-3 -8 -6 -5 -6
6 -1 11 2 17 5 13 3 -3 4 -12 1 -19z m55 -20 c-6 -6 -7 0 -4 19 5 21 7 23 10
9 2 -10 0 -22 -6 -28z m-247 22 c3 -5 1 -10 -4 -10 -6 0 -11 5 -11 10 0 6 2
10 4 10 3 0 8 -4 11 -10z m42 -42 c-3 -8 -6 -5 -6 6 -1 11 2 17 5 13 3 -3 4
-12 1 -19z m153 12 c0 -5 -5 -10 -11 -10 -5 0 -7 5 -4 10 3 6 8 10 11 10 2 0
4 -4 4 -10z m130 0 c0 -5 -4 -10 -10 -10 -5 0 -10 5 -10 10 0 6 5 10 10 10 6
0 10 -4 10 -10z m70 -60 c0 -10 -7 -20 -15 -24 -12 -4 -13 -2 -7 12 5 9 7 23
4 31 -3 8 0 11 7 7 6 -4 11 -15 11 -26z m-120 10 c0 -5 -4 -10 -10 -10 -5 0
-10 5 -10 10 0 6 5 10 10 10 6 0 10 -4 10 -10z m66 -27 c-11 -11 -19 6 -11 24
8 17 8 17 12 0 3 -10 2 -21 -1 -24z m94 -7 c0 -3 -4 -8 -10 -11 -5 -3 -10 -1
-10 4 0 6 5 11 10 11 6 0 10 -2 10 -4z m-300 -16 c0 -5 -2 -10 -4 -10 -3 0 -8
5 -11 10 -3 6 -1 10 4 10 6 0 11 -4 11 -10z m185 -9 c-3 -6 -11 -11 -16 -11
-5 0 -4 6 3 14 14 16 24 13 13 -3z m85 -33 c0 -20 -18 -5 -23 19 -5 26 -4 26
9 8 8 -10 14 -22 14 -27z m-157 -9 c-8 -8 -13 -7 -18 2 -5 8 -4 10 3 5 7 -4
12 -2 12 5 0 7 3 9 7 6 4 -4 2 -12 -4 -18z m-63 7 c0 -3 -4 -8 -10 -11 -5 -3
-10 -1 -10 4 0 6 5 11 10 11 6 0 10 -2 10 -4z m290 0 c0 -11 -19 -15 -25 -6
-3 5 1 10 9 10 9 0 16 -2 16 -4z m-3760 -20 c0 -2 -7 -7 -16 -10 -8 -3 -12 -2
-9 4 6 10 25 14 25 6z m3362 -18 c-7 -7 -12 -8 -12 -2 0 14 12 26 19 19 2 -3
-1 -11 -7 -17z m260 -10 c-9 -9 -12 -7 -12 12 0 19 3 21 12 12 9 -9 9 -15 0
-24z m-175 -3 c-4 -8 -11 -15 -17 -15 -6 0 -6 7 2 20 14 22 24 19 15 -5z m233
21 c0 -3 -4 -8 -10 -11 -5 -3 -10 -1 -10 4 0 6 5 11 10 11 6 0 10 -2 10 -4z
m50 -11 c0 -8 -4 -15 -10 -15 -5 0 -7 7 -4 15 4 8 8 15 10 15 2 0 4 -7 4 -15z
m140 -21 c0 -13 5 -24 10 -24 6 0 3 -11 -5 -24 -10 -15 -12 -26 -6 -30 11 -7
10 -71 -2 -82 -4 -4 -7 5 -7 19 0 19 -5 27 -17 27 -15 0 -15 2 2 14 15 11 17
17 8 28 -8 9 -9 19 -3 28 16 26 11 50 -10 50 -12 0 -17 5 -14 14 9 23 44 7 44
-20z m34 -10 c3 -8 2 -12 -4 -9 -6 3 -10 10 -10 16 0 14 7 11 14 -7z m-130
-10 c3 -8 2 -12 -4 -9 -6 3 -10 10 -10 16 0 14 7 11 14 -7z m-124 -34 c0 -5
-2 -10 -4 -10 -3 0 -8 5 -11 10 -3 6 -1 10 4 10 6 0 11 -4 11 -10z m60 -10 c0
-5 -4 -10 -10 -10 -5 0 -10 5 -10 10 0 6 5 10 10 10 6 0 10 -4 10 -10z m-310
-10 c0 -5 -4 -10 -10 -10 -5 0 -10 5 -10 10 0 6 5 10 10 10 6 0 10 -4 10 -10z
m-3430 -40 c0 -13 -1 -13 -10 0 -5 8 -10 22 -10 30 0 13 1 13 10 0 5 -8 10
-22 10 -30z m-10 -25 c5 3 2 -8 -6 -25 -17 -34 -24 -38 -19 -12 2 9 4 28 5 42
2 18 4 20 7 7 2 -9 8 -15 13 -12z m3408 5 c-7 -10 -14 -18 -15 -16 -6 6 9 36
18 36 5 0 4 -9 -3 -20z m432 16 c0 -3 -4 -8 -10 -11 -5 -3 -10 -1 -10 4 0 6 5
11 10 11 6 0 10 -2 10 -4z m120 -21 c-7 -9 -15 -13 -18 -10 -3 2 1 11 8 20 7
9 15 13 18 10 3 -2 -1 -11 -8 -20z m-466 -20 c-4 -8 -8 -15 -10 -15 -2 0 -4 7
-4 15 0 8 4 15 10 15 5 0 7 -7 4 -15z m508 -27 c-7 -7 -12 -8 -12 -2 0 14 12
26 19 19 2 -3 -1 -11 -7 -17z m-98 -4 c8 -3 12 -12 9 -20 -4 -10 -10 -11 -24
-3 -11 5 -17 14 -14 20 7 11 9 11 29 3z m-3927 -36 c-3 -8 -6 -5 -6 6 -1 11 2
17 5 13 3 -3 4 -12 1 -19z m3973 8 c0 -3 -4 -8 -10 -11 -5 -3 -10 -1 -10 4 0
6 5 11 10 11 6 0 10 -2 10 -4z m30 -6 c0 -5 -4 -10 -10 -10 -5 0 -10 5 -10 10
0 6 5 10 10 10 6 0 10 -4 10 -10z m-66 -20 c14 -5 26 -15 26 -22 0 -10 -2 -10
-9 1 -5 7 -14 10 -20 7 -6 -4 -11 -3 -11 3 0 6 -7 7 -17 4 -11 -4 -14 -3 -9 5
9 14 8 14 40 2z m-184 -4 c0 -3 -4 -8 -10 -11 -5 -3 -10 -1 -10 4 0 6 5 11 10
11 6 0 10 -2 10 -4z m-3759 -58 c-3 -62 -12 -61 -10 0 1 29 5 50 8 47 2 -3 4
-24 2 -47z m3486 20 c-3 -7 -5 -2 -5 12 0 14 2 19 5 13 2 -7 2 -19 0 -25z
m383 22 c0 -5 -2 -10 -4 -10 -3 0 -8 5 -11 10 -3 6 -1 10 4 10 6 0 11 -4 11
-10z m150 -21 c0 -6 -4 -7 -10 -4 -5 3 -10 11 -10 16 0 6 5 7 10 4 6 -3 10
-11 10 -16z m-45 -13 c18 -13 18 -14 -3 -36 -19 -20 -22 -21 -22 -6 0 9 -4 14
-10 11 -5 -3 -10 -1 -10 4 0 6 7 11 15 11 18 0 20 16 3 23 -7 3 -8 6 -2 6 5 1
19 -5 29 -13z m-74 -10 c5 3 9 0 9 -6 0 -15 -23 -7 -26 8 -1 7 0 8 3 2 2 -5 9
-8 14 -4z m-241 -20 c0 -3 -4 -8 -10 -11 -5 -3 -10 -1 -10 4 0 6 5 11 10 11 6
0 10 -2 10 -4z m85 -67 c11 -16 1 -19 -13 -3 -7 8 -8 14 -3 14 5 0 13 -5 16
-11z m205 2 c0 -15 -12 -41 -19 -41 -3 0 -6 11 -6 25 0 14 6 25 13 25 6 0 12
-4 12 -9z m-40 -11 c0 -5 -5 -10 -11 -10 -5 0 -7 5 -4 10 3 6 8 10 11 10 2 0
4 -4 4 -10z m70 -24 c0 -3 -4 -8 -10 -11 -5 -3 -10 -1 -10 4 0 6 5 11 10 11 6
0 10 -2 10 -4z m-283 -42 c-3 -3 -12 -4 -19 -1 -8 3 -5 6 6 6 11 1 17 -2 13
-5z m-117 -14 c0 -5 -2 -10 -4 -10 -3 0 -8 5 -11 10 -3 6 -1 10 4 10 6 0 11
-4 11 -10z m155 -10 c3 -5 1 -10 -4 -10 -6 0 -11 5 -11 10 0 6 2 10 4 10 3 0
8 -4 11 -10z m185 -11 c0 -4 -7 -9 -15 -13 -9 -3 -15 0 -15 8 0 7 7 13 15 13
8 0 15 -4 15 -8z m-48 -61 c-7 -7 -12 -8 -12 -2 0 14 12 26 19 19 2 -3 -1 -11
-7 -17z m-109 -143 c-3 -9 -8 -14 -10 -11 -3 3 -2 9 2 15 9 16 15 13 8 -4z
m-4 -86 c3 -11 1 -12 -11 -2 -8 7 -19 9 -23 5 -5 -4 -5 -1 -1 6 9 16 28 11 35
-9z m-864 -79 c-3 -5 -16 -15 -28 -21 -19 -9 -19 -8 3 10 28 23 34 26 25 11z"/>
<path d="M2718 3471 c-13 -15 -14 -21 -3 -24 7 -3 17 5 24 19 13 29 2 31 -21
5z"/>
<path d="M2685 3313 c8 -34 2 -31 55 -34 47 -3 50 -1 50 29 0 14 -2 15 -10 2
-8 -12 -10 -12 -10 5 -1 19 -1 19 -15 2 -16 -21 -55 -15 -55 9 0 8 -5 14 -11
14 -7 0 -9 -10 -4 -27z"/>
<path d="M3036 2662 c-3 -5 -2 -18 1 -30 6 -24 33 -30 33 -8 0 8 2 20 3 28 2
7 2 9 -1 5 -2 -4 -10 -3 -17 3 -7 6 -16 7 -19 2z"/>
<path d="M3110 2637 c0 -19 16 -31 24 -18 3 5 -1 14 -9 21 -12 10 -15 10 -15
-3z"/>
<path d="M3010 2630 c0 -5 -5 -10 -11 -10 -11 0 -48 -39 -49 -52 0 -4 7 -5 15
-2 8 4 15 1 15 -6 0 -6 4 -9 10 -5 5 3 7 11 4 18 -2 7 5 22 16 34 22 25 25 33
10 33 -5 0 -10 -4 -10 -10z"/>
<path d="M3080 2590 c0 -5 7 -10 16 -10 9 0 12 -5 8 -12 -4 -7 -3 -8 5 -4 9 6
9 11 0 22 -13 16 -29 18 -29 4z"/>
<path d="M3027 2584 c-10 -10 12 -44 28 -44 8 0 15 -9 15 -20 0 -12 9 -22 23
-25 22 -6 34 -35 15 -35 -5 0 -3 -6 4 -14 11 -11 15 -11 26 5 16 23 -3 64 -42
93 -14 10 -26 25 -26 32 0 14 -31 19 -43 8z"/>
<path d="M3170 2555 c0 -8 5 -15 10 -15 6 0 10 7 10 15 0 8 -4 15 -10 15 -5 0
-10 -7 -10 -15z"/>
<path d="M2897 2547 c3 -4 -3 -17 -13 -28 -16 -17 -16 -19 -1 -19 10 0 16 -5
15 -12 -2 -7 2 -12 7 -13 6 0 16 -4 23 -9 25 -15 24 3 0 27 -23 23 -24 25 -6
36 26 16 22 31 -6 29 -14 -1 -22 -6 -19 -11z"/>
<path d="M3005 2540 c-3 -5 -1 -10 4 -10 6 0 11 5 11 10 0 6 -2 10 -4 10 -3 0
-8 -4 -11 -10z"/>
<path d="M3220 2507 c0 -10 9 -25 20 -34 11 -10 20 -22 20 -28 0 -16 38 -36
45 -25 4 6 -1 13 -9 16 -9 3 -16 11 -16 18 0 6 -14 24 -30 40 -23 23 -30 25
-30 13z"/>
<path d="M3015 2501 c-3 -5 -1 -12 5 -16 5 -3 10 -1 10 5 0 6 4 9 9 5 5 -3 12
-1 16 5 3 5 -3 10 -14 10 -11 0 -22 -4 -26 -9z"/>
<path d="M3154 2446 c-4 -10 8 -30 32 -54 22 -21 48 -51 59 -65 11 -14 25 -26
32 -27 7 0 17 -9 23 -20 11 -21 35 -27 44 -11 9 14 -5 42 -19 39 -12 -3 -55
37 -55 51 0 4 -13 15 -30 24 -16 10 -30 24 -30 30 0 7 -12 20 -25 30 -22 16
-26 16 -31 3z"/>
<path d="M2955 2440 c-3 -5 1 -10 10 -10 9 0 13 5 10 10 -3 6 -8 10 -10 10 -2
0 -7 -4 -10 -10z"/>
<path d="M3125 2399 c6 -33 15 -36 15 -6 0 15 -4 27 -9 27 -6 0 -8 -10 -6 -21z"/>
<path d="M3318 2414 c-8 -8 12 -54 24 -54 11 0 10 11 -5 38 -7 12 -16 20 -19
16z"/>
<path d="M3180 2355 c0 -9 6 -12 15 -9 8 4 12 10 9 15 -8 14 -24 10 -24 -6z"/>
<path d="M3368 2345 c-3 -3 6 -19 20 -35 15 -17 30 -26 35 -21 5 5 -3 20 -18
35 -28 28 -29 29 -37 21z"/>
<path d="M3205 2320 c-4 -6 -11 -7 -17 -4 -6 4 -9 1 -6 -6 7 -22 25 -22 31 0
6 22 2 26 -8 10z"/>
<path d="M3230 2280 c-12 -7 -12 -12 -2 -22 6 -6 12 -10 13 -7 0 2 2 12 4 22
4 20 4 19 -15 7z"/>
<path d="M3430 2277 c0 -3 14 -15 30 -27 23 -16 30 -18 30 -7 0 8 -8 17 -17
21 -10 3 -24 9 -30 12 -7 3 -13 3 -13 1z"/>
<path d="M3347 2249 c-3 -12 1 -27 12 -37 25 -24 61 -44 61 -34 0 5 7 9 15 9
17 0 19 -9 5 -23 -7 -7 -5 -17 5 -30 14 -19 15 -19 21 3 5 18 12 21 44 18 27
-3 40 0 44 11 3 8 -1 17 -10 21 -8 3 -13 12 -10 20 3 8 0 20 -7 27 -10 11 -16
9 -30 -10 -17 -23 -17 -23 0 -19 11 4 9 1 -4 -6 -17 -9 -28 -8 -52 2 -17 8
-29 19 -27 25 3 7 -3 10 -14 7 -12 -3 -20 2 -25 16 -8 27 -21 27 -28 0z"/>
<path d="M3655 2049 c-9 -14 -2 -20 14 -10 8 6 9 11 3 15 -6 3 -14 1 -17 -5z"/>
<path d="M3825 1880 c-3 -5 -1 -10 4 -10 6 0 11 5 11 10 0 6 -2 10 -4 10 -3 0
-8 -4 -11 -10z"/>
<path d="M4041 1713 c14 -16 42 -17 37 -1 -2 6 -14 12 -26 13 -17 1 -19 -1
-11 -12z"/>
<path d="M4095 1691 c-6 -11 9 -23 19 -14 9 9 7 23 -3 23 -6 0 -12 -4 -16 -9z"/>
<path d="M4049 1672 c16 -30 33 -38 22 -11 -4 13 -14 25 -20 27 -10 3 -10 0
-2 -16z"/>
<path d="M4000 1635 c-8 -9 -8 -15 -2 -15 12 0 26 19 19 26 -2 2 -10 -2 -17
-11z"/>
<path d="M4420 1412 c0 -6 9 -12 20 -15 11 -3 20 -3 20 -1 0 2 -9 8 -20 14
-11 6 -20 7 -20 2z"/>
<path d="M20 1375 c0 -2 4 -15 9 -28 8 -20 6 -27 -7 -32 -16 -6 -16 -7 1 -16
9 -6 15 -14 12 -20 -4 -5 2 -17 11 -26 16 -17 16 -18 -15 -27 -27 -8 -32 -13
-29 -35 3 -24 8 -27 56 -31 51 -5 54 -4 68 22 8 15 14 35 14 45 0 29 -75 139
-99 146 -11 3 -21 4 -21 2z"/>
<path d="M4470 1373 c0 -5 16 -21 35 -36 42 -34 47 -23 6 16 -30 27 -41 33
-41 20z"/>
<path d="M4550 1279 c0 -5 5 -7 10 -4 6 3 10 8 10 11 0 2 -4 4 -10 4 -5 0 -10
-5 -10 -11z"/>
<path d="M194 1169 c0 -10 4 -19 8 -19 10 0 10 27 0 34 -4 2 -8 -4 -8 -15z"/>
<path d="M150 1170 c-8 -5 -10 -10 -5 -10 6 0 4 -4 -3 -8 -17 -11 12 -69 38
-77 11 -4 23 -17 26 -31 5 -21 24 -35 24 -18 0 28 -26 85 -42 89 -10 4 -18 11
-18 16 0 6 -5 7 -12 3 -8 -5 -9 -2 -5 10 4 10 7 20 7 22 0 3 5 2 10 -1 6 -3
10 -1 10 4 0 13 -10 14 -30 1z"/>
<path d="M4710 1003 c0 -4 5 -15 10 -23 8 -13 10 -13 10 2 0 9 -4 20 -10 23
-5 3 -10 3 -10 -2z"/>
<path d="M213 974 c-4 -10 -2 -19 5 -22 7 -2 12 -12 12 -22 0 -10 7 -21 16
-24 10 -4 14 -14 11 -26 -3 -10 1 -24 9 -31 8 -6 14 -17 14 -23 0 -6 11 -19
24 -29 16 -12 22 -25 19 -37 -3 -11 -9 -17 -14 -14 -12 7 -11 -3 1 -27 6 -10
20 -19 30 -19 12 0 20 -7 20 -16 0 -11 -5 -14 -16 -10 -13 5 -15 2 -11 -14 3
-13 0 -20 -9 -20 -8 0 -14 -4 -14 -10 0 -5 5 -10 10 -10 11 0 7 -41 -5 -60 -4
-6 1 -20 11 -31 17 -19 17 -19 -22 -14 l-39 6 26 -18 c20 -13 24 -21 15 -29
-6 -6 -17 -9 -24 -6 -7 2 -10 -2 -7 -11 7 -16 -17 -39 -36 -35 -9 2 -14 -6
-13 -20 1 -20 -3 -22 -23 -17 -25 6 -32 -9 -8 -19 8 -3 15 -11 15 -17 0 -8 -4
-8 -15 1 -12 10 -16 8 -25 -14 -10 -28 -25 -34 -33 -13 -3 7 -6 8 -6 1 -1 -6
-12 -9 -26 -6 -23 4 -25 1 -25 -29 0 -30 -1 -31 -13 -14 -14 19 -43 12 -31 -7
4 -7 2 -8 -4 -4 -7 4 -12 2 -12 -4 0 -6 -4 -8 -10 -5 -6 4 -10 -7 -10 -25 0
-34 -1 -34 67 12 23 15 44 28 48 28 8 0 113 78 150 112 17 16 33 28 38 28 4 0
7 7 7 16 0 8 5 12 10 9 6 -3 21 2 35 13 19 15 21 22 12 32 -9 10 -9 12 3 8 8
-3 20 1 25 9 8 11 15 8 36 -16 l26 -30 -23 -18 c-13 -10 -24 -23 -24 -29 0 -7
-8 -15 -17 -20 -10 -4 -20 -8 -23 -9 -3 -2 -15 -6 -27 -10 -13 -4 -23 -11 -23
-16 0 -5 -4 -9 -10 -9 -16 0 -60 -42 -54 -51 3 -5 -1 -6 -8 -4 -14 6 -58 -37
-58 -55 0 -6 -6 -10 -14 -10 -8 0 -27 -5 -43 -12 -15 -6 -31 -11 -34 -10 -3 1
-11 -9 -18 -21 -6 -12 -27 -32 -46 -45 -19 -12 -35 -27 -35 -32 0 -15 9 -12
38 10 50 38 127 89 170 112 23 12 42 28 42 35 0 7 6 10 13 7 8 -3 20 2 27 11
7 8 16 15 20 15 15 0 30 -56 26 -91 l-5 -36 40 11 c24 6 39 16 39 26 0 11 11
15 50 15 28 0 50 3 50 6 0 4 15 7 34 7 33 0 34 -1 24 -29 -5 -16 -13 -29 -16
-29 -54 -2 -156 -11 -159 -13 -2 -2 2 -18 8 -35 8 -23 17 -32 34 -32 13 0 25
7 28 15 6 15 62 13 95 -3 9 -5 28 -6 42 -1 14 4 22 7 17 8 -4 1 0 12 9 26 16
24 16 25 -9 25 -14 0 -29 5 -32 10 -3 6 -2 10 4 10 5 0 11 6 14 13 2 6 3 4 2
-5 -2 -14 4 -18 24 -18 37 0 51 17 44 53 -6 27 -4 30 15 25 12 -4 22 -2 22 2
0 17 -19 23 -111 37 l-36 5 8 42 c8 43 -2 114 -18 125 -9 6 -36 60 -37 74 -1
4 -7 12 -15 16 -7 5 -11 13 -7 19 3 6 2 13 -4 17 -7 4 -6 14 2 28 19 34 20 70
2 63 -9 -3 -21 -6 -27 -7 -7 0 -3 -4 7 -8 19 -7 19 -8 -1 -13 -31 -8 -83 31
-83 62 0 17 -14 40 -39 65 -22 21 -39 41 -38 44 4 12 -30 51 -38 43 -5 -4 -5
-1 -1 6 12 20 -14 101 -36 113 -14 8 -20 6 -25 -7z m40 -34 c3 -11 1 -18 -4
-14 -5 3 -9 12 -9 20 0 20 7 17 13 -6z m132 -360 c-3 -5 -12 -10 -18 -10 -7 0
-6 4 3 10 19 12 23 12 15 0z m45 -26 c0 -8 -6 -14 -14 -14 -8 0 -17 -6 -19
-12 -3 -7 -5 -2 -4 13 1 27 37 40 37 13z m55 -184 c11 -5 15 -9 8 -9 -7 -1
-10 -15 -8 -40 3 -32 0 -41 -18 -49 -19 -9 -19 -11 -4 -11 10 -1 15 -6 12 -11
-4 -6 -10 -8 -15 -5 -11 7 -71 -22 -82 -39 -4 -6 -10 -7 -14 -4 -4 4 7 21 25
37 34 32 40 65 14 79 -14 9 -13 12 10 36 27 27 39 30 72 16z"/>
<path d="M81 785 c2 -32 -2 -51 -14 -62 -16 -16 -17 -16 -17 0 0 9 -4 17 -10
17 -5 0 -10 -4 -10 -9 0 -12 29 -41 41 -41 5 0 9 -4 9 -10 0 -5 -8 -10 -17
-10 -17 -1 -17 -1 0 -11 9 -5 17 -17 17 -24 0 -8 5 -15 10 -15 15 0 12 40 -2
41 -7 0 -4 4 7 9 11 5 15 9 9 9 -8 1 -10 12 -5 34 9 40 2 117 -11 117 -5 0 -8
-20 -7 -45z"/>
<path d="M156 795 c4 -8 10 -12 15 -9 11 6 2 24 -11 24 -5 0 -7 -7 -4 -15z"/>
<path d="M0 759 c0 -11 4 -18 10 -14 5 3 7 12 3 20 -7 21 -13 19 -13 -6z"/>
<path d="M4888 743 c6 -2 18 -2 25 0 6 3 1 5 -13 5 -14 0 -19 -2 -12 -5z"/>
<path d="M4825 720 c-3 -5 -2 -10 4 -10 5 0 13 5 16 10 3 6 2 10 -4 10 -5 0
-13 -4 -16 -10z"/>
<path d="M140 710 c0 -5 5 -10 11 -10 5 0 7 5 4 10 -3 6 -8 10 -11 10 -2 0 -4
-4 -4 -10z"/>
<path d="M260 710 c0 -5 9 -14 21 -20 19 -11 20 -10 9 9 -11 22 -30 29 -30 11z"/>
<path d="M1 673 c-1 -18 4 -33 9 -33 12 0 12 17 0 45 -7 17 -9 15 -9 -12z"/>
<path d="M177 683 c-11 -10 -8 -53 4 -53 5 0 7 -4 4 -10 -3 -5 2 -10 13 -10
15 0 19 7 18 33 -1 38 -21 59 -39 40z"/>
<path d="M4793 653 c9 -2 25 -2 35 0 9 3 1 5 -18 5 -19 0 -27 -2 -17 -5z"/>
<path d="M4888 653 c7 -3 16 -2 19 1 4 3 -2 6 -13 5 -11 0 -14 -3 -6 -6z"/>
<path d="M4893 613 c9 -2 25 -2 35 0 9 3 1 5 -18 5 -19 0 -27 -2 -17 -5z"/>
<path d="M4965 600 c-3 -5 -2 -10 4 -10 5 0 13 5 16 10 3 6 2 10 -4 10 -5 0
-13 -4 -16 -10z"/>
<path d="M4745 560 c42 -11 75 -12 75 -2 0 5 -24 9 -52 9 -44 1 -48 0 -23 -7z"/>
<path d="M4870 560 c-12 -8 -9 -10 13 -10 16 0 26 4 22 10 -8 12 -16 12 -35 0z"/>
<path d="M7 554 c-4 -4 -7 -18 -7 -31 0 -28 23 -27 28 1 4 20 -11 40 -21 30z"/>
<path d="M4680 509 c0 -5 5 -7 10 -4 6 3 10 8 10 11 0 2 -4 4 -10 4 -5 0 -10
-5 -10 -11z"/>
<path d="M400 480 c0 -5 5 -10 10 -10 6 0 10 5 10 10 0 6 -4 10 -10 10 -5 0
-10 -4 -10 -10z"/>
<path d="M4600 420 c0 -5 5 -10 10 -10 6 0 10 5 10 10 0 6 -4 10 -10 10 -5 0
-10 -4 -10 -10z"/>
<path d="M4818 423 c6 -2 18 -2 25 0 6 3 1 5 -13 5 -14 0 -19 -2 -12 -5z"/>
<path d="M4760 410 l-35 -6 45 -5 c25 -3 53 -9 63 -13 10 -5 17 -4 17 3 0 6
-8 11 -18 11 -10 0 -22 4 -27 8 -6 5 -26 5 -45 2z"/>
<path d="M600 395 c0 -8 7 -15 16 -15 14 0 14 3 4 15 -7 8 -14 15 -16 15 -2 0
-4 -7 -4 -15z"/>
<path d="M740 382 c0 -13 -4 -21 -8 -18 -5 3 -9 -8 -9 -24 0 -33 5 -35 41 -19
15 7 26 22 28 40 6 36 -1 45 -29 45 -17 0 -23 -6 -23 -24z"/>
<path d="M4678 403 c7 -3 16 -2 19 1 4 3 -2 6 -13 5 -11 0 -14 -3 -6 -6z"/>
<path d="M80 390 c0 -5 4 -10 9 -10 6 0 13 5 16 10 3 6 -1 10 -9 10 -9 0 -16
-4 -16 -10z"/>
<path d="M4880 380 c0 -5 5 -10 11 -10 5 0 7 5 4 10 -3 6 -8 10 -11 10 -2 0
-4 -4 -4 -10z"/>
<path d="M41 354 c0 -11 3 -14 6 -6 3 7 2 16 -1 19 -3 4 -6 -2 -5 -13z"/>
<path d="M650 355 c0 -8 5 -15 10 -15 6 0 10 7 10 15 0 8 -4 15 -10 15 -5 0
-10 -7 -10 -15z"/>
<path d="M820 341 c0 -5 5 -13 10 -16 6 -3 10 -2 10 4 0 5 -4 13 -10 16 -5 3
-10 2 -10 -4z"/>
<path d="M4748 343 c7 -3 16 -2 19 1 4 3 -2 6 -13 5 -11 0 -14 -3 -6 -6z"/>
<path d="M4718 293 c7 -3 16 -2 19 1 4 3 -2 6 -13 5 -11 0 -14 -3 -6 -6z"/>
<path d="M4710 220 c0 -5 5 -10 11 -10 5 0 7 5 4 10 -3 6 -8 10 -11 10 -2 0
-4 -4 -4 -10z"/>
<path d="M4610 216 c0 -2 7 -7 16 -10 8 -3 12 -2 9 4 -6 10 -25 14 -25 6z"/>
<path d="M773 186 c4 -10 1 -16 -9 -16 -9 0 -14 -6 -11 -12 2 -7 13 -13 25
-12 12 0 19 -3 17 -7 -6 -8 26 -17 43 -12 16 6 16 38 -1 51 -6 6 -25 14 -41
18 -25 6 -28 4 -23 -10z"/>
<path d="M3743 181 c-11 -17 -8 -19 20 -24 37 -6 59 8 28 18 -12 3 -21 11 -21
16 0 15 -14 10 -27 -10z"/>
<path d="M4953 193 c9 -2 25 -2 35 0 9 3 1 5 -18 5 -19 0 -27 -2 -17 -5z"/>
<path d="M243 183 c-7 -2 -13 -12 -13 -20 0 -10 -6 -13 -16 -9 -10 4 -18 0
-21 -13 -3 -12 -11 -17 -19 -14 -9 3 -14 -1 -14 -13 0 -9 -3 -15 -6 -11 -6 6
-67 -21 -111 -50 -12 -8 -19 -21 -17 -28 7 -17 53 -2 87 28 13 12 34 23 46 25
31 3 83 41 75 54 -5 7 -2 8 5 4 7 -5 10 -14 7 -22 -5 -12 -2 -12 17 -2 12 6
32 11 45 9 26 -3 27 6 6 34 -11 14 -18 16 -21 7 -3 -8 -10 -7 -21 7 -10 10
-23 17 -29 14z"/>
<path d="M3819 176 c18 -10 20 -15 10 -20 -8 -3 6 -3 31 0 25 4 50 9 55 12 12
8 -37 19 -85 20 -34 1 -35 1 -11 -12z"/>
<path d="M4180 180 l-25 -8 25 0 c14 0 34 3 45 8 l20 9 -20 -1 c-11 0 -31 -4
-45 -8z"/>
<path d="M3644 149 c-7 -12 23 -30 39 -23 8 3 32 1 53 -5 43 -12 59 -5 29 12
-23 14 -115 26 -121 16z"/>
<path d="M360 140 c0 -5 5 -10 10 -10 6 0 10 5 10 10 0 6 -4 10 -10 10 -5 0
-10 -4 -10 -10z"/>
<path d="M3978 133 c7 -3 16 -2 19 1 4 3 -2 6 -13 5 -11 0 -14 -3 -6 -6z"/>
<path d="M3825 120 c3 -5 13 -10 21 -10 8 0 22 -4 32 -9 32 -16 93 -33 99 -27
4 3 1 6 -5 6 -7 0 -11 5 -9 12 1 7 -18 15 -48 19 -27 5 -60 11 -73 14 -15 4
-21 2 -17 -5z"/>
<path d="M4397 123 c18 -2 50 -2 70 0 21 2 7 4 -32 4 -38 0 -55 -2 -38 -4z"/>
<path d="M756 94 c-11 -28 -6 -39 9 -20 8 11 15 23 15 28 0 14 -18 9 -24 -8z"/>
<path d="M953 55 c19 -32 39 -54 50 -55 9 0 17 4 17 9 0 11 -82 101 -92 101
-4 0 8 -25 25 -55z"/>
<path d="M3608 103 c7 -3 16 -2 19 1 4 3 -2 6 -13 5 -11 0 -14 -3 -6 -6z"/>
<path d="M4058 103 c12 -2 32 -2 45 0 12 2 2 4 -23 4 -25 0 -35 -2 -22 -4z"/>
<path d="M4440 90 c-13 -8 -13 -10 2 -10 9 0 20 5 23 10 8 13 -5 13 -25 0z"/>
<path d="M3610 82 c0 -5 13 -9 30 -9 16 0 27 4 24 9 -3 4 -16 8 -30 8 -13 0
-24 -4 -24 -8z"/>
<path d="M4563 83 c9 -2 25 -2 35 0 9 3 1 5 -18 5 -19 0 -27 -2 -17 -5z"/>
<path d="M369 73 c-1 -5 -1 -12 0 -17 1 -5 -5 -6 -14 -2 -25 9 -120 -24 -103
-36 8 -6 -4 -8 -35 -4 -30 4 -46 2 -42 -4 9 -15 132 -13 138 3 4 9 7 9 18 -1
7 -6 32 -12 55 -12 32 0 43 4 47 19 6 23 -1 34 -30 50 -25 13 -33 14 -34 4z"/>
<path d="M4003 53 c29 -8 19 -22 -20 -26 -34 -3 -33 -4 10 -5 30 -1 46 2 42 8
-3 6 1 10 10 10 9 0 13 4 10 10 -3 6 -21 9 -38 9 -18 -1 -24 -3 -14 -6z"/>
<path d="M3780 40 c8 -5 35 -9 60 -9 34 0 40 2 25 9 -29 13 -104 13 -85 0z"/>
<path d="M4255 40 c3 -5 18 -10 33 -10 21 0 24 2 12 10 -20 13 -53 13 -45 0z"/>
<path d="M4493 43 c9 -2 25 -2 35 0 9 3 1 5 -18 5 -19 0 -27 -2 -17 -5z"/>
<path d="M4650 40 c8 -5 29 -9 45 -9 26 0 27 2 10 9 -11 5 -31 9 -45 9 -20 1
-22 -1 -10 -9z"/>
<path d="M4180 29 c0 -5 9 -9 20 -9 11 0 20 2 20 4 0 2 -9 6 -20 9 -11 3 -20
1 -20 -4z"/>
<path d="M4800 20 c20 -13 43 -13 35 0 -3 6 -16 10 -28 10 -18 0 -19 -2 -7
-10z"/>
<path d="M4235 10 c3 -5 15 -10 26 -10 11 0 17 5 14 10 -3 6 -15 10 -26 10
-11 0 -17 -4 -14 -10z"/>
<path d="M488 3 c7 -3 16 -2 19 1 4 3 -2 6 -13 5 -11 0 -14 -3 -6 -6z"/>
</g>
</svg>
